<svg id="visual" viewBox="0 0 1600 900" width="1600" height="900" xmlns="http://www.w3.org/2000/svg" xmlns:xlink="http://www.w3.org/1999/xlink" version="1.1"><path d="M1171 900L1160.8 878.5C1150.7 857 1130.3 814 1128.3 771.2C1126.3 728.3 1142.7 685.7 1123.2 642.8C1103.7 600 1048.3 557 1024 514.2C999.7 471.3 1006.3 428.7 1040.7 385.8C1075 343 1137 300 1154.7 257.2C1172.3 214.3 1145.7 171.7 1127.7 128.8C1109.7 86 1100.3 43 1095.7 21.5L1091 0L1600 0L1600 21.5C1600 43 1600 86 1600 128.8C1600 171.7 1600 214.3 1600 257.2C1600 300 1600 343 1600 385.8C1600 428.7 1600 471.3 1600 514.2C1600 557 1600 600 1600 642.8C1600 685.7 1600 728.3 1600 771.2C1600 814 1600 857 1600 878.5L1600 900Z" fill="#4facf7"></path><path d="M1097 900L1096.5 878.5C1096 857 1095 814 1092.2 771.2C1089.3 728.3 1084.7 685.7 1114 642.8C1143.3 600 1206.7 557 1229.2 514.2C1251.7 471.3 1233.3 428.7 1228 385.8C1222.7 343 1230.3 300 1233.7 257.2C1237 214.3 1236 171.7 1232 128.8C1228 86 1221 43 1217.5 21.5L1214 0L1600 0L1600 21.5C1600 43 1600 86 1600 128.8C1600 171.7 1600 214.3 1600 257.2C1600 300 1600 343 1600 385.8C1600 428.7 1600 471.3 1600 514.2C1600 557 1600 600 1600 642.8C1600 685.7 1600 728.3 1600 771.2C1600 814 1600 857 1600 878.5L1600 900Z" fill="#2b9dfc"></path><path d="M1353 900L1340.7 878.5C1328.3 857 1303.7 814 1295.2 771.2C1286.7 728.3 1294.3 685.7 1297.2 642.8C1300 600 1298 557 1295.2 514.2C1292.3 471.3 1288.7 428.7 1268 385.8C1247.3 343 1209.7 300 1210.2 257.2C1210.7 214.3 1249.3 171.7 1253 128.8C1256.7 86 1225.3 43 1209.7 21.5L1194 0L1600 0L1600 21.5C1600 43 1600 86 1600 128.8C1600 171.7 1600 214.3 1600 257.2C1600 300 1600 343 1600 385.8C1600 428.7 1600 471.3 1600 514.2C1600 557 1600 600 1600 642.8C1600 685.7 1600 728.3 1600 771.2C1600 814 1600 857 1600 878.5L1600 900Z" fill="#008cff"></path><path d="M1393 900L1378.2 878.5C1363.3 857 1333.7 814 1333.7 771.2C1333.7 728.3 1363.3 685.7 1360.8 642.8C1358.3 600 1323.7 557 1315.7 514.2C1307.7 471.3 1326.3 428.7 1336.7 385.8C1347 343 1349 300 1359.5 257.2C1370 214.3 1389 171.7 1378.3 128.8C1367.7 86 1327.3 43 1307.2 21.5L1287 0L1600 0L1600 21.5C1600 43 1600 86 1600 128.8C1600 171.7 1600 214.3 1600 257.2C1600 300 1600 343 1600 385.8C1600 428.7 1600 471.3 1600 514.2C1600 557 1600 600 1600 642.8C1600 685.7 1600 728.3 1600 771.2C1600 814 1600 857 1600 878.5L1600 900Z" fill="#007aff"></path><path d="M1514 900L1499.3 878.5C1484.7 857 1455.3 814 1438.5 771.2C1421.7 728.3 1417.3 685.7 1423.2 642.8C1429 600 1445 557 1444 514.2C1443 471.3 1425 428.7 1430.8 385.8C1436.7 343 1466.3 300 1467.2 257.2C1468 214.3 1440 171.7 1428.2 128.8C1416.3 86 1420.7 43 1422.8 21.5L1425 0L1600 0L1600 21.5C1600 43 1600 86 1600 128.8C1600 171.7 1600 214.3 1600 257.2C1600 300 1600 343 1600 385.8C1600 428.7 1600 471.3 1600 514.2C1600 557 1600 600 1600 642.8C1600 685.7 1600 728.3 1600 771.2C1600 814 1600 857 1600 878.5L1600 900Z" fill="#0066ff"></path></svg>